<svg id="Слой_1" data-name="Слой 1" xmlns="http://www.w3.org/2000/svg" viewBox="0 0 161.11 173.93"><path d="M37.42,172c-1.61-.2-3.24-.34-4.84-.6a35.37,35.37,0,0,1-11.7-3.55c-4.1-2.24-6.92-5.79-9.36-9.67a51.21,51.21,0,0,1-6.28-16.4A112.36,112.36,0,0,1,2.59,121.2a197.13,197.13,0,0,1,.62-22.93,102.22,102.22,0,0,1,8.09-32.2A127.28,127.28,0,0,1,31.15,33.59,88.28,88.28,0,0,1,49.59,17.42c5.67-3.81,11.48-7.35,17.93-9.71a75.94,75.94,0,0,1,16.1-4,92.13,92.13,0,0,1,17.15-1,81.09,81.09,0,0,1,11.82,1.49c6.6,1.34,13.14,3,19.7,4.52a9.51,9.51,0,0,1,.94.29l-3.54,5.51c-1.47-1.18-2.87-2.38-4.34-3.47A23.69,23.69,0,0,0,114.12,6.8c-3.39-.45-6.76-1.1-10.16-1.36a70.92,70.92,0,0,0-8.5.07,67.85,67.85,0,0,0-21.52,4.94A68.9,68.9,0,0,0,61.86,17,114.35,114.35,0,0,0,45.65,29.31c-5.51,5.09-9.77,11.16-13.87,17.38A133.88,133.88,0,0,0,16.06,80.83a119.53,119.53,0,0,0-4.69,19.36c-.73,5.35-1.43,10.7-1.92,16.07-.41,4.45-.72,8.92-.7,13.39A76.42,76.42,0,0,0,11,148c1.44,5.76,4.91,10.19,9.29,14,5.54,4.88,12.11,6.33,19.25,6.05A69.13,69.13,0,0,0,57.8,165a52.77,52.77,0,0,0,19.53-10.57A2,2,0,0,1,78,154a2.54,2.54,0,0,1,.73,0,15.27,15.27,0,0,1,3.12.2c-1.42,1.25-2.81,2.54-4.27,3.75-4,3.3-8,6.53-12.75,8.64A65.23,65.23,0,0,1,49.73,171c-2,.36-4.09.54-6.13.81-.27,0-.54.12-.8.18Z"/><path d="M122.37,30c-.91,2.44-1.84,4.65-2.58,6.93a167.45,167.45,0,0,0-5.9,23.15c-.87,5-2.1,10-3.14,15q-2.5,12.12-5,24.25a89.79,89.79,0,0,1-4.94,15.38c-3.31,8.29-6.84,16.5-10.3,24.73a7.67,7.67,0,0,1-1,1.35c-1,1.42-.59,2.44,1.11,2.51a65.76,65.76,0,0,0,7,0c8.49-.54,16.42-3.18,24-6.82a42.82,42.82,0,0,0,11.88-8.74,72.16,72.16,0,0,0,16.23-25.25,70.12,70.12,0,0,0,4.3-24.91,89.53,89.53,0,0,0-1.47-18.42c-1.73-8.4-5.13-16.13-11.23-22.22a41.58,41.58,0,0,0-22.57-11.48,44.05,44.05,0,0,0-11.5-.88c-2.91.26-5.79.85-8.67,1.33-2.28.38-4.56.75-6.82,1.25-1.22.28-1.75-.64-2.79-1.2l4.4-1.75A47.33,47.33,0,0,1,106,21.44a55.45,55.45,0,0,1,11.08-.19,43.58,43.58,0,0,1,24.47,10.34,57.52,57.52,0,0,1,13.07,15,44.26,44.26,0,0,1,4.83,14.19,85.52,85.52,0,0,1,1.67,17.56,90.59,90.59,0,0,1-1.6,13.94,61.3,61.3,0,0,1-4.32,15.35c-2.63,5.68-5.4,11.3-9.23,16.3a65.88,65.88,0,0,1-9.75,9.72,50.39,50.39,0,0,1-11.94,8,55.43,55.43,0,0,1-14.32,3.82c-5.54.88-11.06.54-16.61.07-5.38-.47-10.77-.8-16.16-1-3.65-.1-7.07,1.24-10.48,2.43-.89.31-1.76.65-2.66.92,3-2.79,4.47-6.46,5.91-10.11a252.5,252.5,0,0,0,9.45-28.09c2.39-9,4.86-18,7.29-27q2.43-9,4.83-17.93a160.38,160.38,0,0,1,7-19.26c1.32-3.22,2.61-6.45,3.9-9.68.1-.25.17-.51.28-.85-.28,0-.49-.06-.69-.06-2.38,0-4.76,0-7.13,0a.89.89,0,0,0-1,.64c-3.64,8.52-7.3,17-9.89,26C81.15,71.35,78.33,81.14,75.71,91c-1.34,5.05-2.22,10.23-3.36,15.34a116.35,116.35,0,0,1-5.17,15.88c-2.39,6.34-4.81,12.67-7.39,18.93a20,20,0,0,1-5.86,7.65,10.13,10.13,0,0,1-5.56,2.51c-2.53.27-5.07.51-7.61.75l-.11-.22c.76-1,1.51-2.07,2.31-3.07.12-.14.51-.1.77-.06a10.4,10.4,0,0,0,5.18-.56,7.9,7.9,0,0,0,4.46-4.82c1.3-3.32,2.46-6.7,3.65-10.06,1.34-3.77,2.78-7.51,3.92-11.35a185.64,185.64,0,0,0,5.49-24,141.74,141.74,0,0,1,6.93-25.83c3-8.34,6-16.66,10.18-24.47,2.07-3.85,4.39-7.56,6.61-11.34.14-.24.29-.46.49-.79a4,4,0,0,0-.55,0c-4.72.09-9.44.15-14.16.29s-9.36.65-13.63,2.85a32.27,32.27,0,0,0-9.78,8.08,10.31,10.31,0,0,0-2.19,7.25,11.64,11.64,0,0,0,.22,2.2,3.9,3.9,0,0,0,4.7,3.23A14.13,14.13,0,0,0,63.42,55c3.39-3.54,6.68-7.18,10-10.81.45-.49.78-.56,1.32-.24s1.14.6,1.82,1c-1.48,1.73-3,3.39-4.38,5.15C67.9,55.46,62.38,59.3,56.32,62.4c-5.38,2.76-10.23.63-12.2-5.13-1.17-3.39-.42-6.48,1-9.63,2.17-4.83,5.74-8.34,9.94-11.33A27.8,27.8,0,0,1,67.53,31c3-.4,6-.32,9-.55,5-.38,9.85.35,14.77.7,5.41.38,10.83.77,16.25,1a41.74,41.74,0,0,0,10.86-1.52C119.7,30.34,121,30.22,122.37,30Zm-5.75,4.37c-.75,0-1.36,0-2,0-2.22.11-4.43.28-6.65.33a1.32,1.32,0,0,0-1.48,1.11c-2.75,9-5.68,18-8.26,27.06-2.16,7.58-4,15.27-5.86,22.93-1.13,4.63-1.93,9.33-3.12,13.94a237.07,237.07,0,0,1-8,24.32,119.76,119.76,0,0,1-6.62,15.41L72.68,143c2.09-.07,4.08-.22,6.08-.19a6.53,6.53,0,0,0,4.75-1.89A18.68,18.68,0,0,0,88.34,133c3-8.74,6-17.45,8.49-26.31,2.61-9.18,4.68-18.51,7-27.78,1.25-5.13,2.23-10.34,3.71-15.4,2.53-8.63,5.36-17.18,8.07-25.76C115.91,36.66,116.25,35.56,116.62,34.37Z"/></svg>